<svg width="170" height="145" viewBox="0 0 170 145" fill="none" xmlns="http://www.w3.org/2000/svg">
<rect x="0.5" y="0.5" width="169" height="144" rx="3.5" stroke="black" stroke-opacity="0.3"/>
<path d="M43.824 103.848V115H42.368V109.944H36.688V115H35.232V103.848H36.688V108.744H42.368V103.848H43.824ZM54.3101 110.28C54.3101 110.557 54.2941 110.851 54.2621 111.16H47.2541C47.3075 112.024 47.6008 112.701 48.1341 113.192C48.6781 113.672 49.3341 113.912 50.1021 113.912C50.7315 113.912 51.2541 113.768 51.6701 113.48C52.0968 113.181 52.3955 112.787 52.5661 112.296H54.1341C53.8995 113.139 53.4301 113.827 52.7261 114.36C52.0221 114.883 51.1475 115.144 50.1021 115.144C49.2701 115.144 48.5235 114.957 47.8621 114.584C47.2115 114.211 46.6995 113.683 46.3261 113C45.9528 112.307 45.7661 111.507 45.7661 110.6C45.7661 109.693 45.9475 108.899 46.3101 108.216C46.6728 107.533 47.1795 107.011 47.8301 106.648C48.4915 106.275 49.2488 106.088 50.1021 106.088C50.9341 106.088 51.6701 106.269 52.3101 106.632C52.9501 106.995 53.4408 107.496 53.7821 108.136C54.1341 108.765 54.3101 109.48 54.3101 110.28ZM52.8061 109.976C52.8061 109.421 52.6835 108.947 52.4381 108.552C52.1928 108.147 51.8568 107.843 51.4301 107.64C51.0141 107.427 50.5501 107.32 50.0381 107.32C49.3021 107.32 48.6728 107.555 48.1501 108.024C47.6381 108.493 47.3448 109.144 47.2701 109.976H52.8061ZM55.688 110.584C55.688 109.688 55.8693 108.904 56.232 108.232C56.5947 107.549 57.0907 107.021 57.72 106.648C58.36 106.275 59.0693 106.088 59.848 106.088C60.616 106.088 61.2827 106.253 61.848 106.584C62.4133 106.915 62.8347 107.331 63.112 107.832V106.232H64.584V115H63.112V113.368C62.824 113.88 62.392 114.307 61.816 114.648C61.2507 114.979 60.5893 115.144 59.832 115.144C59.0533 115.144 58.3493 114.952 57.72 114.568C57.0907 114.184 56.5947 113.645 56.232 112.952C55.8693 112.259 55.688 111.469 55.688 110.584ZM63.112 110.6C63.112 109.939 62.9787 109.363 62.712 108.872C62.4453 108.381 62.0827 108.008 61.624 107.752C61.176 107.485 60.68 107.352 60.136 107.352C59.592 107.352 59.096 107.48 58.648 107.736C58.2 107.992 57.8427 108.365 57.576 108.856C57.3093 109.347 57.176 109.923 57.176 110.584C57.176 111.256 57.3093 111.843 57.576 112.344C57.8427 112.835 58.2 113.213 58.648 113.48C59.096 113.736 59.592 113.864 60.136 113.864C60.68 113.864 61.176 113.736 61.624 113.48C62.0827 113.213 62.4453 112.835 62.712 112.344C62.9787 111.843 63.112 111.261 63.112 110.6ZM66.5005 110.584C66.5005 109.688 66.6818 108.904 67.0445 108.232C67.4072 107.549 67.9032 107.021 68.5325 106.648C69.1725 106.275 69.8872 106.088 70.6765 106.088C71.3592 106.088 71.9938 106.248 72.5805 106.568C73.1672 106.877 73.6152 107.288 73.9245 107.8V103.16H75.3965V115H73.9245V113.352C73.6365 113.875 73.2098 114.307 72.6445 114.648C72.0792 114.979 71.4178 115.144 70.6605 115.144C69.8818 115.144 69.1725 114.952 68.5325 114.568C67.9032 114.184 67.4072 113.645 67.0445 112.952C66.6818 112.259 66.5005 111.469 66.5005 110.584ZM73.9245 110.6C73.9245 109.939 73.7912 109.363 73.5245 108.872C73.2578 108.381 72.8952 108.008 72.4365 107.752C71.9885 107.485 71.4925 107.352 70.9485 107.352C70.4045 107.352 69.9085 107.48 69.4605 107.736C69.0125 107.992 68.6552 108.365 68.3885 108.856C68.1218 109.347 67.9885 109.923 67.9885 110.584C67.9885 111.256 68.1218 111.843 68.3885 112.344C68.6552 112.835 69.0125 113.213 69.4605 113.48C69.9085 113.736 70.4045 113.864 70.9485 113.864C71.4925 113.864 71.9885 113.736 72.4365 113.48C72.8952 113.213 73.2578 112.835 73.5245 112.344C73.7912 111.843 73.9245 111.261 73.9245 110.6ZM85.313 107.112C85.313 108.04 84.993 108.813 84.353 109.432C83.7237 110.04 82.7583 110.344 81.457 110.344H79.313V115H77.857V103.848H81.457C82.7157 103.848 83.6703 104.152 84.321 104.76C84.9823 105.368 85.313 106.152 85.313 107.112ZM81.457 109.144C82.2677 109.144 82.865 108.968 83.249 108.616C83.633 108.264 83.825 107.763 83.825 107.112C83.825 105.736 83.0357 105.048 81.457 105.048H79.313V109.144H81.457ZM91.4746 106.072C92.136 106.072 92.7333 106.216 93.2666 106.504C93.8 106.781 94.216 107.203 94.5146 107.768C94.824 108.333 94.9786 109.021 94.9786 109.832V115H93.5386V110.04C93.5386 109.165 93.32 108.499 92.8826 108.04C92.4453 107.571 91.848 107.336 91.0906 107.336C90.3226 107.336 89.7093 107.576 89.2506 108.056C88.8026 108.536 88.5786 109.235 88.5786 110.152V115H87.1226V103.16H88.5786V107.48C88.8666 107.032 89.2613 106.685 89.7626 106.44C90.2746 106.195 90.8453 106.072 91.4746 106.072ZM101.181 115.144C100.36 115.144 99.613 114.957 98.941 114.584C98.2797 114.211 97.757 113.683 97.373 113C96.9997 112.307 96.813 111.507 96.813 110.6C96.813 109.704 97.005 108.915 97.389 108.232C97.7837 107.539 98.317 107.011 98.989 106.648C99.661 106.275 100.413 106.088 101.245 106.088C102.077 106.088 102.829 106.275 103.501 106.648C104.173 107.011 104.701 107.533 105.085 108.216C105.48 108.899 105.677 109.693 105.677 110.6C105.677 111.507 105.474 112.307 105.069 113C104.674 113.683 104.136 114.211 103.453 114.584C102.77 114.957 102.013 115.144 101.181 115.144ZM101.181 113.864C101.704 113.864 102.194 113.741 102.653 113.496C103.112 113.251 103.48 112.883 103.757 112.392C104.045 111.901 104.189 111.304 104.189 110.6C104.189 109.896 104.05 109.299 103.773 108.808C103.496 108.317 103.133 107.955 102.685 107.72C102.237 107.475 101.752 107.352 101.229 107.352C100.696 107.352 100.205 107.475 99.757 107.72C99.3197 107.955 98.9677 108.317 98.701 108.808C98.4343 109.299 98.301 109.896 98.301 110.6C98.301 111.315 98.429 111.917 98.685 112.408C98.9517 112.899 99.3037 113.267 99.741 113.512C100.178 113.747 100.658 113.864 101.181 113.864ZM111.863 106.072C112.93 106.072 113.794 106.397 114.455 107.048C115.117 107.688 115.447 108.616 115.447 109.832V115H114.007V110.04C114.007 109.165 113.789 108.499 113.351 108.04C112.914 107.571 112.317 107.336 111.559 107.336C110.791 107.336 110.178 107.576 109.719 108.056C109.271 108.536 109.047 109.235 109.047 110.152V115H107.591V106.232H109.047V107.48C109.335 107.032 109.725 106.685 110.215 106.44C110.717 106.195 111.266 106.072 111.863 106.072ZM125.826 110.28C125.826 110.557 125.81 110.851 125.778 111.16H118.77C118.823 112.024 119.116 112.701 119.65 113.192C120.194 113.672 120.85 113.912 121.618 113.912C122.247 113.912 122.77 113.768 123.186 113.48C123.612 113.181 123.911 112.787 124.082 112.296H125.65C125.415 113.139 124.946 113.827 124.242 114.36C123.538 114.883 122.663 115.144 121.618 115.144C120.786 115.144 120.039 114.957 119.378 114.584C118.727 114.211 118.215 113.683 117.842 113C117.468 112.307 117.282 111.507 117.282 110.6C117.282 109.693 117.463 108.899 117.826 108.216C118.188 107.533 118.695 107.011 119.346 106.648C120.007 106.275 120.764 106.088 121.618 106.088C122.45 106.088 123.186 106.269 123.826 106.632C124.466 106.995 124.956 107.496 125.298 108.136C125.65 108.765 125.826 109.48 125.826 110.28ZM124.322 109.976C124.322 109.421 124.199 108.947 123.954 108.552C123.708 108.147 123.372 107.843 122.946 107.64C122.53 107.427 122.066 107.32 121.554 107.32C120.818 107.32 120.188 107.555 119.666 108.024C119.154 108.493 118.86 109.144 118.786 109.976H124.322ZM130.852 115.144C130.18 115.144 129.577 115.032 129.044 114.808C128.51 114.573 128.089 114.253 127.78 113.848C127.47 113.432 127.3 112.957 127.268 112.424H128.772C128.814 112.861 129.017 113.219 129.38 113.496C129.753 113.773 130.238 113.912 130.836 113.912C131.39 113.912 131.828 113.789 132.148 113.544C132.468 113.299 132.628 112.989 132.628 112.616C132.628 112.232 132.457 111.949 132.116 111.768C131.774 111.576 131.246 111.389 130.532 111.208C129.881 111.037 129.348 110.867 128.932 110.696C128.526 110.515 128.174 110.253 127.876 109.912C127.588 109.56 127.444 109.101 127.444 108.536C127.444 108.088 127.577 107.677 127.844 107.304C128.11 106.931 128.489 106.637 128.98 106.424C129.47 106.2 130.03 106.088 130.66 106.088C131.63 106.088 132.414 106.333 133.012 106.824C133.609 107.315 133.929 107.987 133.972 108.84H132.516C132.484 108.381 132.297 108.013 131.956 107.736C131.625 107.459 131.177 107.32 130.612 107.32C130.089 107.32 129.673 107.432 129.364 107.656C129.054 107.88 128.9 108.173 128.9 108.536C128.9 108.824 128.99 109.064 129.172 109.256C129.364 109.437 129.598 109.587 129.876 109.704C130.164 109.811 130.558 109.933 131.06 110.072C131.689 110.243 132.201 110.413 132.596 110.584C132.99 110.744 133.326 110.989 133.604 111.32C133.892 111.651 134.041 112.083 134.052 112.616C134.052 113.096 133.918 113.528 133.652 113.912C133.385 114.296 133.006 114.6 132.516 114.824C132.036 115.037 131.481 115.144 130.852 115.144Z" fill="black"/>
<g clip-path="url(#clip0_85_1737)">
<path d="M73.3333 55.3333H71C68.4227 55.3333 66.3333 57.4227 66.3333 60V67C66.3333 69.5773 68.4227 71.6666 71 71.6666H73.3333C75.9106 71.6666 78 69.5773 78 67V60C78 57.4227 75.9106 55.3333 73.3333 55.3333Z" stroke="black" stroke-width="2" stroke-linecap="round" stroke-linejoin="round"/>
<path d="M99 55.3333H96.6667C94.0893 55.3333 92 57.4227 92 60V67C92 69.5773 94.0893 71.6666 96.6667 71.6666H99C101.577 71.6666 103.667 69.5773 103.667 67V60C103.667 57.4227 101.577 55.3333 99 55.3333Z" stroke="black" stroke-width="2" stroke-linecap="round" stroke-linejoin="round"/>
<path d="M66.3333 60V53C66.3333 48.0493 68.3 43.3013 71.8007 39.8007C75.3013 36.3 80.0493 34.3333 85 34.3333C89.9507 34.3333 94.6986 36.3 98.1993 39.8007C101.7 43.3013 103.667 48.0493 103.667 53V60" stroke="black" stroke-width="2" stroke-linecap="round" stroke-linejoin="round"/>
</g>
<defs>
<clipPath id="clip0_85_1737">
<rect width="56" height="56" fill="white" transform="translate(57 25)"/>
</clipPath>
</defs>
</svg>
