<svg width="196" height="171" viewBox="0 0 196 171" fill="none" xmlns="http://www.w3.org/2000/svg">
<g filter="url(#filter0_d_262_5235)">
<rect x="13" y="12" width="170" height="145" rx="4" fill="#DB4444"/>
<path d="M64.688 121.416C64.688 120.328 64.9333 119.352 65.424 118.488C65.9147 117.613 66.5813 116.931 67.424 116.44C68.2773 115.949 69.2213 115.704 70.256 115.704C71.472 115.704 72.5333 115.997 73.44 116.584C74.3467 117.171 75.008 118.003 75.424 119.08H73.68C73.3707 118.408 72.9227 117.891 72.336 117.528C71.76 117.165 71.0667 116.984 70.256 116.984C69.4773 116.984 68.7787 117.165 68.16 117.528C67.5413 117.891 67.056 118.408 66.704 119.08C66.352 119.741 66.176 120.52 66.176 121.416C66.176 122.301 66.352 123.08 66.704 123.752C67.056 124.413 67.5413 124.925 68.16 125.288C68.7787 125.651 69.4773 125.832 70.256 125.832C71.0667 125.832 71.76 125.656 72.336 125.304C72.9227 124.941 73.3707 124.424 73.68 123.752H75.424C75.008 124.819 74.3467 125.645 73.44 126.232C72.5333 126.808 71.472 127.096 70.256 127.096C69.2213 127.096 68.2773 126.856 67.424 126.376C66.5813 125.885 65.9147 125.208 65.424 124.344C64.9333 123.48 64.688 122.504 64.688 121.416ZM77.0474 122.584C77.0474 121.688 77.2287 120.904 77.5914 120.232C77.954 119.549 78.45 119.021 79.0794 118.648C79.7194 118.275 80.4287 118.088 81.2074 118.088C81.9754 118.088 82.642 118.253 83.2074 118.584C83.7727 118.915 84.194 119.331 84.4714 119.832V118.232H85.9434V127H84.4714V125.368C84.1834 125.88 83.7514 126.307 83.1754 126.648C82.61 126.979 81.9487 127.144 81.1914 127.144C80.4127 127.144 79.7087 126.952 79.0794 126.568C78.45 126.184 77.954 125.645 77.5914 124.952C77.2287 124.259 77.0474 123.469 77.0474 122.584ZM84.4714 122.6C84.4714 121.939 84.338 121.363 84.0714 120.872C83.8047 120.381 83.442 120.008 82.9834 119.752C82.5354 119.485 82.0394 119.352 81.4954 119.352C80.9514 119.352 80.4554 119.48 80.0074 119.736C79.5594 119.992 79.202 120.365 78.9354 120.856C78.6687 121.347 78.5354 121.923 78.5354 122.584C78.5354 123.256 78.6687 123.843 78.9354 124.344C79.202 124.835 79.5594 125.213 80.0074 125.48C80.4554 125.736 80.9514 125.864 81.4954 125.864C82.0394 125.864 82.5354 125.736 82.9834 125.48C83.442 125.213 83.8047 124.835 84.0714 124.344C84.338 123.843 84.4714 123.261 84.4714 122.6ZM98.9479 118.072C99.6305 118.072 100.239 118.216 100.772 118.504C101.305 118.781 101.727 119.203 102.036 119.768C102.345 120.333 102.5 121.021 102.5 121.832V127H101.06V122.04C101.06 121.165 100.841 120.499 100.404 120.04C99.9772 119.571 99.3959 119.336 98.6599 119.336C97.9025 119.336 97.2999 119.581 96.8519 120.072C96.4039 120.552 96.1799 121.251 96.1799 122.168V127H94.7399V122.04C94.7399 121.165 94.5212 120.499 94.0839 120.04C93.6572 119.571 93.0759 119.336 92.3399 119.336C91.5825 119.336 90.9799 119.581 90.5319 120.072C90.0839 120.552 89.8599 121.251 89.8599 122.168V127H88.4039V118.232H89.8599V119.496C90.1479 119.037 90.5319 118.685 91.0119 118.44C91.5025 118.195 92.0412 118.072 92.6279 118.072C93.3639 118.072 94.0145 118.237 94.5799 118.568C95.1452 118.899 95.5665 119.384 95.8439 120.024C96.0892 119.405 96.4945 118.925 97.0599 118.584C97.6252 118.243 98.2545 118.072 98.9479 118.072ZM112.888 122.28C112.888 122.557 112.872 122.851 112.84 123.16H105.832C105.886 124.024 106.179 124.701 106.712 125.192C107.256 125.672 107.912 125.912 108.68 125.912C109.31 125.912 109.832 125.768 110.248 125.48C110.675 125.181 110.974 124.787 111.144 124.296H112.712C112.478 125.139 112.008 125.827 111.304 126.36C110.6 126.883 109.726 127.144 108.68 127.144C107.848 127.144 107.102 126.957 106.44 126.584C105.79 126.211 105.278 125.683 104.904 125C104.531 124.307 104.344 123.507 104.344 122.6C104.344 121.693 104.526 120.899 104.888 120.216C105.251 119.533 105.758 119.011 106.408 118.648C107.07 118.275 107.827 118.088 108.68 118.088C109.512 118.088 110.248 118.269 110.888 118.632C111.528 118.995 112.019 119.496 112.36 120.136C112.712 120.765 112.888 121.48 112.888 122.28ZM111.384 121.976C111.384 121.421 111.262 120.947 111.016 120.552C110.771 120.147 110.435 119.843 110.008 119.64C109.592 119.427 109.128 119.32 108.616 119.32C107.88 119.32 107.251 119.555 106.728 120.024C106.216 120.493 105.923 121.144 105.848 121.976H111.384ZM116.266 119.656C116.522 119.155 116.885 118.765 117.354 118.488C117.834 118.211 118.415 118.072 119.098 118.072V119.576H118.714C117.082 119.576 116.266 120.461 116.266 122.232V127H114.81V118.232H116.266V119.656ZM120.235 122.584C120.235 121.688 120.416 120.904 120.779 120.232C121.142 119.549 121.638 119.021 122.267 118.648C122.907 118.275 123.616 118.088 124.395 118.088C125.163 118.088 125.83 118.253 126.395 118.584C126.96 118.915 127.382 119.331 127.659 119.832V118.232H129.131V127H127.659V125.368C127.371 125.88 126.939 126.307 126.363 126.648C125.798 126.979 125.136 127.144 124.379 127.144C123.6 127.144 122.896 126.952 122.267 126.568C121.638 126.184 121.142 125.645 120.779 124.952C120.416 124.259 120.235 123.469 120.235 122.584ZM127.659 122.6C127.659 121.939 127.526 121.363 127.259 120.872C126.992 120.381 126.63 120.008 126.171 119.752C125.723 119.485 125.227 119.352 124.683 119.352C124.139 119.352 123.643 119.48 123.195 119.736C122.747 119.992 122.39 120.365 122.123 120.856C121.856 121.347 121.723 121.923 121.723 122.584C121.723 123.256 121.856 123.843 122.123 124.344C122.39 124.835 122.747 125.213 123.195 125.48C123.643 125.736 124.139 125.864 124.683 125.864C125.227 125.864 125.723 125.736 126.171 125.48C126.63 125.213 126.992 124.835 127.259 124.344C127.526 123.843 127.659 123.261 127.659 122.6Z" fill="#FAFAFA"/>
<g clip-path="url(#clip0_262_5235)">
<path d="M81.6667 53.3333H84C85.2377 53.3333 86.4247 52.8416 87.2998 51.9665C88.175 51.0913 88.6667 49.9043 88.6667 48.6666C88.6667 48.0478 88.9125 47.4543 89.3501 47.0167C89.7877 46.5791 90.3812 46.3333 91 46.3333H105C105.619 46.3333 106.212 46.5791 106.65 47.0167C107.087 47.4543 107.333 48.0478 107.333 48.6666C107.333 49.9043 107.825 51.0913 108.7 51.9665C109.575 52.8416 110.762 53.3333 112 53.3333H114.333C115.571 53.3333 116.758 53.825 117.633 54.7001C118.508 55.5753 119 56.7623 119 58V79C119 80.2377 118.508 81.4246 117.633 82.2998C116.758 83.175 115.571 83.6666 114.333 83.6666H81.6667C80.429 83.6666 79.242 83.175 78.3668 82.2998C77.4917 81.4246 77 80.2377 77 79V58C77 56.7623 77.4917 55.5753 78.3668 54.7001C79.242 53.825 80.429 53.3333 81.6667 53.3333" stroke="white" stroke-width="2" stroke-linecap="round" stroke-linejoin="round"/>
<path d="M98 74.3333C101.866 74.3333 105 71.1993 105 67.3333C105 63.4673 101.866 60.3333 98 60.3333C94.134 60.3333 91 63.4673 91 67.3333C91 71.1993 94.134 74.3333 98 74.3333Z" stroke="white" stroke-width="2" stroke-linecap="round" stroke-linejoin="round"/>
</g>
</g>
<defs>
<filter id="filter0_d_262_5235" x="0" y="0" width="196" height="171" filterUnits="userSpaceOnUse" color-interpolation-filters="sRGB">
<feFlood flood-opacity="0" result="BackgroundImageFix"/>
<feColorMatrix in="SourceAlpha" type="matrix" values="0 0 0 0 0 0 0 0 0 0 0 0 0 0 0 0 0 0 127 0" result="hardAlpha"/>
<feOffset dy="1"/>
<feGaussianBlur stdDeviation="6.5"/>
<feComposite in2="hardAlpha" operator="out"/>
<feColorMatrix type="matrix" values="0 0 0 0 0 0 0 0 0 0 0 0 0 0 0 0 0 0 0.05 0"/>
<feBlend mode="normal" in2="BackgroundImageFix" result="effect1_dropShadow_262_5235"/>
<feBlend mode="normal" in="SourceGraphic" in2="effect1_dropShadow_262_5235" result="shape"/>
</filter>
<clipPath id="clip0_262_5235">
<rect width="56" height="56" fill="white" transform="translate(70 37)"/>
</clipPath>
</defs>
</svg>
