<svg width="170" height="145" viewBox="0 0 170 145" fill="none" xmlns="http://www.w3.org/2000/svg">
<rect x="0.5" y="0.5" width="169" height="144" rx="3.5" stroke="black" stroke-opacity="0.3"/>
<path d="M62.68 107.08C62.3707 106.429 61.9227 105.928 61.336 105.576C60.7493 105.213 60.0667 105.032 59.288 105.032C58.5093 105.032 57.8053 105.213 57.176 105.576C56.5573 105.928 56.0667 106.44 55.704 107.112C55.352 107.773 55.176 108.541 55.176 109.416C55.176 110.291 55.352 111.059 55.704 111.72C56.0667 112.381 56.5573 112.893 57.176 113.256C57.8053 113.608 58.5093 113.784 59.288 113.784C60.376 113.784 61.272 113.459 61.976 112.808C62.68 112.157 63.0907 111.277 63.208 110.168H58.76V108.984H64.76V110.104C64.6747 111.021 64.3867 111.864 63.896 112.632C63.4053 113.389 62.76 113.992 61.96 114.44C61.16 114.877 60.2693 115.096 59.288 115.096C58.2533 115.096 57.3093 114.856 56.456 114.376C55.6027 113.885 54.9253 113.208 54.424 112.344C53.9333 111.48 53.688 110.504 53.688 109.416C53.688 108.328 53.9333 107.352 54.424 106.488C54.9253 105.613 55.6027 104.936 56.456 104.456C57.3093 103.965 58.2533 103.72 59.288 103.72C60.472 103.72 61.5173 104.013 62.424 104.6C63.3413 105.187 64.008 106.013 64.424 107.08H62.68ZM66.1411 110.584C66.1411 109.688 66.3225 108.904 66.6851 108.232C67.0478 107.549 67.5438 107.021 68.1731 106.648C68.8131 106.275 69.5225 106.088 70.3011 106.088C71.0691 106.088 71.7358 106.253 72.3011 106.584C72.8665 106.915 73.2878 107.331 73.5651 107.832V106.232H75.0371V115H73.5651V113.368C73.2771 113.88 72.8451 114.307 72.2691 114.648C71.7038 114.979 71.0425 115.144 70.2851 115.144C69.5065 115.144 68.8025 114.952 68.1731 114.568C67.5438 114.184 67.0478 113.645 66.6851 112.952C66.3225 112.259 66.1411 111.469 66.1411 110.584ZM73.5651 110.6C73.5651 109.939 73.4318 109.363 73.1651 108.872C72.8985 108.381 72.5358 108.008 72.0771 107.752C71.6291 107.485 71.1331 107.352 70.5891 107.352C70.0451 107.352 69.5491 107.48 69.1011 107.736C68.6531 107.992 68.2958 108.365 68.0291 108.856C67.7625 109.347 67.6291 109.923 67.6291 110.584C67.6291 111.256 67.7625 111.843 68.0291 112.344C68.2958 112.835 68.6531 113.213 69.1011 113.48C69.5491 113.736 70.0451 113.864 70.5891 113.864C71.1331 113.864 71.6291 113.736 72.0771 113.48C72.5358 113.213 72.8985 112.835 73.1651 112.344C73.4318 111.843 73.5651 111.261 73.5651 110.6ZM88.0416 106.072C88.7243 106.072 89.3323 106.216 89.8656 106.504C90.399 106.781 90.8203 107.203 91.1296 107.768C91.439 108.333 91.5936 109.021 91.5936 109.832V115H90.1536V110.04C90.1536 109.165 89.935 108.499 89.4976 108.04C89.071 107.571 88.4896 107.336 87.7536 107.336C86.9963 107.336 86.3936 107.581 85.9456 108.072C85.4976 108.552 85.2736 109.251 85.2736 110.168V115H83.8336V110.04C83.8336 109.165 83.615 108.499 83.1776 108.04C82.751 107.571 82.1696 107.336 81.4336 107.336C80.6763 107.336 80.0736 107.581 79.6256 108.072C79.1776 108.552 78.9536 109.251 78.9536 110.168V115H77.4976V106.232H78.9536V107.496C79.2416 107.037 79.6256 106.685 80.1056 106.44C80.5963 106.195 81.135 106.072 81.7216 106.072C82.4576 106.072 83.1083 106.237 83.6736 106.568C84.239 106.899 84.6603 107.384 84.9376 108.024C85.183 107.405 85.5883 106.925 86.1536 106.584C86.719 106.243 87.3483 106.072 88.0416 106.072ZM94.734 104.808C94.4567 104.808 94.222 104.712 94.03 104.52C93.838 104.328 93.742 104.093 93.742 103.816C93.742 103.539 93.838 103.304 94.03 103.112C94.222 102.92 94.4567 102.824 94.734 102.824C95.0007 102.824 95.2247 102.92 95.406 103.112C95.598 103.304 95.694 103.539 95.694 103.816C95.694 104.093 95.598 104.328 95.406 104.52C95.2247 104.712 95.0007 104.808 94.734 104.808ZM95.438 106.232V115H93.982V106.232H95.438ZM102.192 106.072C103.258 106.072 104.122 106.397 104.784 107.048C105.445 107.688 105.776 108.616 105.776 109.832V115H104.336V110.04C104.336 109.165 104.117 108.499 103.68 108.04C103.242 107.571 102.645 107.336 101.888 107.336C101.12 107.336 100.506 107.576 100.048 108.056C99.5995 108.536 99.3755 109.235 99.3755 110.152V115H97.9195V106.232H99.3755V107.48C99.6635 107.032 100.053 106.685 100.544 106.44C101.045 106.195 101.594 106.072 102.192 106.072ZM111.77 106.088C112.527 106.088 113.189 106.253 113.754 106.584C114.33 106.915 114.757 107.331 115.034 107.832V106.232H116.506V115.192C116.506 115.992 116.335 116.701 115.994 117.32C115.653 117.949 115.162 118.44 114.522 118.792C113.893 119.144 113.157 119.32 112.314 119.32C111.162 119.32 110.202 119.048 109.434 118.504C108.666 117.96 108.213 117.219 108.074 116.28H109.514C109.674 116.813 110.005 117.24 110.506 117.56C111.007 117.891 111.61 118.056 112.314 118.056C113.114 118.056 113.765 117.805 114.266 117.304C114.778 116.803 115.034 116.099 115.034 115.192V113.352C114.746 113.864 114.319 114.291 113.754 114.632C113.189 114.973 112.527 115.144 111.77 115.144C110.991 115.144 110.282 114.952 109.642 114.568C109.013 114.184 108.517 113.645 108.154 112.952C107.791 112.259 107.61 111.469 107.61 110.584C107.61 109.688 107.791 108.904 108.154 108.232C108.517 107.549 109.013 107.021 109.642 106.648C110.282 106.275 110.991 106.088 111.77 106.088ZM115.034 110.6C115.034 109.939 114.901 109.363 114.634 108.872C114.367 108.381 114.005 108.008 113.546 107.752C113.098 107.485 112.602 107.352 112.058 107.352C111.514 107.352 111.018 107.48 110.57 107.736C110.122 107.992 109.765 108.365 109.498 108.856C109.231 109.347 109.098 109.923 109.098 110.584C109.098 111.256 109.231 111.843 109.498 112.344C109.765 112.835 110.122 113.213 110.57 113.48C111.018 113.736 111.514 113.864 112.058 113.864C112.602 113.864 113.098 113.736 113.546 113.48C114.005 113.213 114.367 112.835 114.634 112.344C114.901 111.843 115.034 111.261 115.034 110.6Z" fill="black"/>
<g clip-path="url(#clip0_85_1756)">
<path d="M103.667 39H66.3333C63.756 39 61.6666 41.0893 61.6666 43.6667V62.3333C61.6666 64.9107 63.756 67 66.3333 67H103.667C106.244 67 108.333 64.9107 108.333 62.3333V43.6667C108.333 41.0893 106.244 39 103.667 39Z" stroke="black" stroke-width="2" stroke-linecap="round" stroke-linejoin="round"/>
<path d="M71 53H80.3333M75.6667 48.3333V57.6666" stroke="black" stroke-width="2" stroke-linecap="round" stroke-linejoin="round"/>
<path d="M92 50.6667V50.6909" stroke="black" stroke-width="3" stroke-linecap="round" stroke-linejoin="round"/>
<path d="M99 55.3333V55.3574" stroke="black" stroke-width="3" stroke-linecap="round" stroke-linejoin="round"/>
</g>
<defs>
<clipPath id="clip0_85_1756">
<rect width="56" height="56" fill="white" transform="translate(57 25)"/>
</clipPath>
</defs>
</svg>
